<?xml version="1.0" encoding="UTF-8"?>
<svg version="1.1" xmlns="http://www.w3.org/2000/svg" width="600" height="600">
<path d="M0 0 C198 0 396 0 600 0 C600 198 600 396 600 600 C402 600 204 600 0 600 C0 402 0 204 0 0 Z " fill="#FEFEFE" transform="translate(0,0)"/>
<path d="M0 0 C1.99872614 1.04599074 3.954368 2.17608487 5.875 3.359375 C6.43317413 3.7004277 6.99134827 4.04148041 7.56643677 4.39286804 C9.3821371 5.50474958 11.19108971 6.62711198 13 7.75 C14.25207265 8.52021241 15.5045173 9.2898204 16.75732422 10.05883789 C19.28978578 11.61517397 21.81940566 13.17597737 24.34667969 14.74072266 C27.70658116 16.82057219 31.07488683 18.88645902 34.4453125 20.94921875 C36.33883664 22.11149875 38.23208425 23.27422943 40.125 24.4375 C41.43791016 25.2423584 41.43791016 25.2423584 42.77734375 26.06347656 C43.57527344 26.55686523 44.37320313 27.05025391 45.1953125 27.55859375 C45.88641113 27.98454834 46.57750977 28.41050293 47.28955078 28.84936523 C49 30 49 30 51 32 C51.21253899 34.5856077 51.30397011 37.06108939 51.30078125 39.6484375 C51.30506638 40.41620514 51.3093515 41.18397278 51.31376648 41.9750061 C51.31951962 43.60751359 51.32000282 45.24004671 51.31567383 46.87255859 C51.31255597 49.33087263 51.33581002 51.78793243 51.36132812 54.24609375 C51.43337518 71.79836238 47.70252912 86.77546524 35.37426758 99.83618164 C25.00391668 110.26548455 11.68938672 116.42606637 -3.0625 116.5625 C-17.83097907 116.30152341 -31.15872034 110.89327466 -41.875 100.625 C-56.73833015 84.61009652 -60.71902091 64.001489 -60.13606262 42.6965332 C-59.7632375 36.9006674 -59.13871392 32.53610328 -55.62841797 27.80078125 C-49.73677693 22.74233056 -43.0199609 19.56615277 -35.89353943 16.5852356 C-31.23929533 14.63671421 -27.00614318 12.35524303 -22.75 9.6484375 C-21.89582741 9.10694061 -21.89582741 9.10694061 -21.0243988 8.55450439 C-19.36803143 7.49842612 -17.71522471 6.43676986 -16.0625 5.375 C-14.04377232 4.0941219 -12.01460282 2.8294665 -9.97265625 1.5859375 C-9.12968994 1.0604834 -8.28672363 0.5350293 -7.41821289 -0.00634766 C-4.36781386 -1.25976755 -3.10495695 -1.05860914 0 0 Z " fill="#FBFBFB" transform="translate(88,242)"/>
<path d="M0 0 C1.99872614 1.04599074 3.954368 2.17608487 5.875 3.359375 C6.43317413 3.7004277 6.99134827 4.04148041 7.56643677 4.39286804 C9.3821371 5.50474958 11.19108971 6.62711198 13 7.75 C14.25207265 8.52021241 15.5045173 9.2898204 16.75732422 10.05883789 C19.28978578 11.61517397 21.81940566 13.17597737 24.34667969 14.74072266 C27.70658116 16.82057219 31.07488683 18.88645902 34.4453125 20.94921875 C36.33883664 22.11149875 38.23208425 23.27422943 40.125 24.4375 C41.43791016 25.2423584 41.43791016 25.2423584 42.77734375 26.06347656 C43.57527344 26.55686523 44.37320313 27.05025391 45.1953125 27.55859375 C45.88641113 27.98454834 46.57750977 28.41050293 47.28955078 28.84936523 C49 30 49 30 51 32 C51.21253899 34.5856077 51.30397011 37.06108939 51.30078125 39.6484375 C51.30506638 40.41620514 51.3093515 41.18397278 51.31376648 41.9750061 C51.31951962 43.60751359 51.32000282 45.24004671 51.31567383 46.87255859 C51.31255597 49.33087263 51.33581002 51.78793243 51.36132812 54.24609375 C51.43337518 71.79836238 47.70252912 86.77546524 35.37426758 99.83618164 C25.00391668 110.26548455 11.68938672 116.42606637 -3.0625 116.5625 C-17.83097907 116.30152341 -31.15872034 110.89327466 -41.875 100.625 C-56.73833015 84.61009652 -60.71902091 64.001489 -60.13606262 42.6965332 C-59.7632375 36.9006674 -59.13871392 32.53610328 -55.62841797 27.80078125 C-49.73677693 22.74233056 -43.0199609 19.56615277 -35.89353943 16.5852356 C-31.23929533 14.63671421 -27.00614318 12.35524303 -22.75 9.6484375 C-21.89582741 9.10694061 -21.89582741 9.10694061 -21.0243988 8.55450439 C-19.36803143 7.49842612 -17.71522471 6.43676986 -16.0625 5.375 C-14.04377232 4.0941219 -12.01460282 2.8294665 -9.97265625 1.5859375 C-9.12968994 1.0604834 -8.28672363 0.5350293 -7.41821289 -0.00634766 C-4.36781386 -1.25976755 -3.10495695 -1.05860914 0 0 Z M-9.73828125 17.39453125 C-10.63393799 17.93368164 -11.52959473 18.47283203 -12.45239258 19.02832031 C-13.39622803 19.61709961 -14.34006348 20.20587891 -15.3125 20.8125 C-16.28276123 21.40256836 -17.25302246 21.99263672 -18.25268555 22.60058594 C-21.17804572 24.38532292 -24.09003206 26.19030097 -27 28 C-28.65600655 29.01992664 -30.3122383 30.03948776 -31.96875 31.05859375 C-38.3149256 34.6108393 -38.3149256 34.6108393 -44 39 C-44.26897551 43.09213773 -44.27151279 47.18836043 -44.29516602 51.28857422 C-44.3121463 53.33242591 -44.35596865 55.37455782 -44.40039062 57.41796875 C-44.48532281 70.73272281 -41.12190277 81.3077886 -32 91.16015625 C-23.66254045 99.12540779 -15.81993729 102.41112454 -4.375 102.5 C-3.58754395 102.50644531 -2.80008789 102.51289063 -1.98876953 102.51953125 C9.47677369 102.27074834 18.41454148 97.39985804 26.75 89.75 C36.84973135 79.08917247 38.48228019 64.83345495 38.1875 50.8125 C38.17396484 49.57435547 38.16042969 48.33621094 38.14648438 47.06054688 C38.11149611 44.0398929 38.06240724 41.0201906 38 38 C37.44417236 37.74057617 36.88834473 37.48115234 36.31567383 37.21386719 C31.06461293 34.68285266 26.03446554 31.88704076 21.07421875 28.828125 C20.47344513 28.45772095 19.87267151 28.08731689 19.25369263 27.70568848 C16.76230918 26.16441204 14.27472148 24.61719294 11.79077148 23.06396484 C9.95171879 21.91631219 8.10714121 20.77799761 6.26171875 19.640625 C5.17850342 18.96547852 4.09528809 18.29033203 2.97924805 17.59472656 C-2.12985985 14.85993243 -4.73347222 14.32844431 -9.73828125 17.39453125 Z " fill="#050505" transform="translate(88,242)"/>
<path d="M0 0 C0.94681641 -0.02835937 1.89363281 -0.05671875 2.86914062 -0.0859375 C10.59120064 -0.10719575 16.48429039 1.87597007 22.0715332 7.34375 C28.5100404 14.46729089 28.56017505 20.71692348 28.55810547 30.03417969 C28.56245898 32.22931671 28.59874168 34.42240853 28.63671875 36.6171875 C28.70722448 45.23978676 28.33158734 51.69767955 22.44140625 58.5234375 C21.88324219 58.96945312 21.32507813 59.41546875 20.75 59.875 C20.19441406 60.33648437 19.63882813 60.79796875 19.06640625 61.2734375 C13.36603511 64.99467771 7.95600347 64.83433478 1.375 64.8125 C-0.06456055 64.83666992 -0.06456055 64.83666992 -1.53320312 64.86132812 C-8.52992005 64.86610404 -14.51030669 64.30168666 -20.0546875 59.59765625 C-20.59351563 58.92605469 -21.13234375 58.25445312 -21.6875 57.5625 C-22.51894531 56.55896484 -22.51894531 56.55896484 -23.3671875 55.53515625 C-26.56472915 51.03267193 -27.14147084 47.43551093 -27.18359375 41.953125 C-27.19713646 40.85807648 -27.19713646 40.85807648 -27.21095276 39.74090576 C-27.22543408 38.19775475 -27.23433674 36.65454264 -27.23803711 35.11132812 C-27.24989332 32.77105756 -27.29905701 30.43346129 -27.34960938 28.09375 C-27.5083609 13.42508972 -27.5083609 13.42508972 -21.8125 7.5 C-15.11635402 1.14724612 -8.91206957 -0.02397329 0 0 Z " fill="#060606" transform="translate(259.8125,268.5)"/>
<path d="M0 0 C1.94140625 1.390625 1.94140625 1.390625 3.5625 2.8125 C4.51125 3.616875 5.46 4.42125 6.4375 5.25 C12.07219092 12.04477435 12.0910065 18.54612091 12.06347656 26.96044922 C12.06250856 29.0440698 12.10408507 31.12394533 12.1484375 33.20703125 C12.22178201 41.33661468 11.49719255 48.10716364 6.5625 54.8125 C-0.27516155 61.20486712 -7.18152474 62.17546486 -16.25 62.1875 C-17.20970703 62.21199219 -18.16941406 62.23648438 -19.15820312 62.26171875 C-26.51066622 62.29183123 -31.8785011 60.94551833 -37.4609375 56.03125 C-37.90695312 55.4640625 -38.35296875 54.896875 -38.8125 54.3125 C-39.27398437 53.7453125 -39.73546875 53.178125 -40.2109375 52.59375 C-43.23340212 48.20443832 -43.77908495 44.58695762 -43.84375 39.30078125 C-43.86085022 38.20929024 -43.86085022 38.20929024 -43.8782959 37.0957489 C-43.89715344 35.55681124 -43.91024704 34.01779359 -43.91796875 32.47875977 C-43.93730022 30.14907639 -43.99932469 27.82298983 -44.0625 25.49414062 C-44.17133405 17.88526078 -44.02647672 11.71200045 -39.13525391 5.46557617 C-29.88239013 -3.54379118 -11.51599071 -6.24762081 0 0 Z " fill="#070707" transform="translate(480.4375,271.1875)"/>
<path d="M0 0 C0.94681641 -0.02835937 1.89363281 -0.05671875 2.86914062 -0.0859375 C10.59120064 -0.10719575 16.48429039 1.87597007 22.0715332 7.34375 C28.40919094 14.35571141 28.56021286 20.42923159 28.55810547 29.60693359 C28.56245831 31.72967004 28.59874009 33.85029014 28.63671875 35.97265625 C28.71310717 45.16391653 27.8670116 51.00281915 21.9375 58.25 C15.17361615 63.78408679 9.33673363 65.12984307 0.6875 64.9375 C-0.66021484 64.94813477 -0.66021484 64.94813477 -2.03515625 64.95898438 C-8.79410234 64.8950351 -14.71734867 64.1260256 -20.0546875 59.59765625 C-20.59351563 58.92605469 -21.13234375 58.25445312 -21.6875 57.5625 C-22.51894531 56.55896484 -22.51894531 56.55896484 -23.3671875 55.53515625 C-26.56472915 51.03267193 -27.14147084 47.43551093 -27.18359375 41.953125 C-27.19713646 40.85807648 -27.19713646 40.85807648 -27.21095276 39.74090576 C-27.22543408 38.19775475 -27.23433674 36.65454264 -27.23803711 35.11132812 C-27.24989332 32.77105756 -27.29905701 30.43346129 -27.34960938 28.09375 C-27.5083609 13.42508972 -27.5083609 13.42508972 -21.8125 7.5 C-15.11635402 1.14724612 -8.91206957 -0.02397329 0 0 Z " fill="#060606" transform="translate(327.8125,268.5)"/>
<path d="M0 0 C4.62 0 9.24 0 14 0 C19.94 11.55 25.88 23.1 32 35 C36.81028074 26.58200871 41.55039855 18.22338477 46 9.625 C46.73283203 8.21734375 46.73283203 8.21734375 47.48046875 6.78125 C48.65613485 4.5221269 49.82845139 2.26126111 51 0 C55.62 0 60.24 0 65 0 C65 21.12 65 42.24 65 64 C60.38 64 55.76 64 51 64 C50.67 52.78 50.34 41.56 50 30 C46.04 37.59 42.08 45.18 38 53 C34.37 53 30.74 53 27 53 C25.02041009 49.37523055 23.04130886 45.7501958 21.0625 42.125 C20.49853516 41.09246094 19.93457031 40.05992187 19.35351562 38.99609375 C18.81533203 38.00996094 18.27714844 37.02382813 17.72265625 36.0078125 C17.22515869 35.09660645 16.72766113 34.18540039 16.21508789 33.24658203 C15.45556443 31.84229533 14.71398838 30.42797676 14 29 C13.67 40.55 13.34 52.1 13 64 C8.71 64 4.42 64 0 64 C0 42.88 0 21.76 0 0 Z " fill="#060606" transform="translate(505,269)"/>
<path d="M0 0 C4.29 0 8.58 0 13 0 C13 21.12 13 42.24 13 64 C8.71 64 4.42 64 0 64 C0 55.75 0 47.5 0 39 C-9.57 39 -19.14 39 -29 39 C-29 47.25 -29 55.5 -29 64 C-33.29 64 -37.58 64 -42 64 C-42 43.21 -42 22.42 -42 1 C-38.04 1 -34.08 1 -30 1 C-30 9.25 -30 17.5 -30 26 C-20.1 26 -10.2 26 0 26 C0 17.42 0 8.84 0 0 Z " fill="#080808" transform="translate(411,269)"/>
<path d="M0 0 C1.27049194 -0.00942627 1.27049194 -0.00942627 2.56665039 -0.01904297 C10.77631097 0.14587074 17.28255802 2.24949415 23.3984375 7.890625 C27.03377188 11.85294712 28.02498366 15.26821699 27.875 20.5 C25.79346065 20.63536022 23.70938794 20.73215465 21.625 20.8125 C20.46484375 20.87050781 19.3046875 20.92851562 18.109375 20.98828125 C14.875 20.5 14.875 20.5 12.640625 18.04296875 C11.76664063 16.78419922 11.76664063 16.78419922 10.875 15.5 C7.22126672 14.28208891 3.80754014 14.23895325 0 14.1875 C-0.70769531 14.15849609 -1.41539062 14.12949219 -2.14453125 14.09960938 C-5.61968606 14.05754512 -7.8316572 14.32332673 -10.82836914 16.12817383 C-13.78004856 19.17649588 -13.756604 20.68329451 -13.75390625 24.875 C-13.75583984 26.10734375 -13.75777344 27.3396875 -13.75976562 28.609375 C-13.72399414 30.53523438 -13.72399414 30.53523438 -13.6875 32.5 C-13.69845703 33.78390625 -13.70941406 35.0678125 -13.72070312 36.390625 C-13.97974538 43.04387038 -13.97974538 43.04387038 -11.34912109 48.86743164 C-8.93708847 50.63793243 -7.91447258 51.0038665 -4.97265625 50.99609375 C-4.19599609 50.99673828 -3.41933594 50.99738281 -2.61914062 50.99804688 C-1.81669922 50.97806641 -1.01425781 50.95808594 -0.1875 50.9375 C1.01036133 50.94813477 1.01036133 50.94813477 2.23242188 50.95898438 C6.87716626 50.90895813 10.16229077 50.58786971 13.875 47.5 C14.205 46.51 14.535 45.52 14.875 44.5 C19.165 44.5 23.455 44.5 27.875 44.5 C27.43689345 49.97633194 26.45436199 53.29424967 22.875 57.5 C12.71870612 65.49061357 2.45906197 65.69187098 -10.125 64.5 C-16.96664914 62.70928667 -22.48566458 58.6106409 -26.125 52.5 C-28.70058935 45.8565911 -28.45559494 39.60143253 -28.4375 32.5625 C-28.45361328 31.31275391 -28.46972656 30.06300781 -28.48632812 28.77539062 C-28.49092577 20.11802021 -27.85512364 13.55772091 -21.71875 6.921875 C-15.10484929 1.0212381 -8.60627847 0.04878753 0 0 Z " fill="#0A0A0A" transform="translate(192.125,268.5)"/>
<path d="M0 0 C0.75603516 -0.02900391 1.51207031 -0.05800781 2.29101562 -0.08789062 C7.6069638 -0.14782759 10.60015829 0.78147016 14.8125 4.3125 C16.9740286 8.63555719 16.08676848 14.37664464 16.125 19.125 C16.15400391 20.31416016 16.18300781 21.50332031 16.21289062 22.72851562 C16.22126953 23.87642578 16.22964844 25.02433594 16.23828125 26.20703125 C16.25286377 27.25737549 16.26744629 28.30771973 16.2824707 29.38989258 C15.69645186 33.03416875 14.34516275 34.68023981 11.8125 37.3125 C8.44328823 38.99710589 4.7015138 38.62342974 1 38.6875 C0.19240234 38.72488281 -0.61519531 38.76226562 -1.44726562 38.80078125 C-5.87811958 38.86610096 -7.61478579 38.76859147 -11.19921875 35.9140625 C-15.24209933 30.62416375 -14.48286835 25.47550066 -14.5625 19 C-14.59988281 17.85853516 -14.63726562 16.71707031 -14.67578125 15.54101562 C-14.76260915 7.28754137 -14.76260915 7.28754137 -13.08300781 4.43994141 C-11.7265625 3.08203125 -11.7265625 3.08203125 -9.1875 1.3125 C-7.10020511 -0.77479489 -2.86269125 0.0356944 0 0 Z " fill="#F7F7F7" transform="translate(327.1875,281.6875)"/>
<path d="M0 0 C0.75603516 -0.02900391 1.51207031 -0.05800781 2.29101562 -0.08789062 C7.6069638 -0.14782759 10.60015829 0.78147016 14.8125 4.3125 C16.9740286 8.63555719 16.08676848 14.37664464 16.125 19.125 C16.15400391 20.31416016 16.18300781 21.50332031 16.21289062 22.72851562 C16.22126953 23.87642578 16.22964844 25.02433594 16.23828125 26.20703125 C16.25286377 27.25737549 16.26744629 28.30771973 16.2824707 29.38989258 C15.69645186 33.03416875 14.34516275 34.68023981 11.8125 37.3125 C8.44328823 38.99710589 4.7015138 38.62342974 1 38.6875 C0.19240234 38.72488281 -0.61519531 38.76226562 -1.44726562 38.80078125 C-5.87811958 38.86610096 -7.61478579 38.76859147 -11.19921875 35.9140625 C-15.24209933 30.62416375 -14.48286835 25.47550066 -14.5625 19 C-14.59988281 17.85853516 -14.63726562 16.71707031 -14.67578125 15.54101562 C-14.76260915 7.28754137 -14.76260915 7.28754137 -13.08300781 4.43994141 C-11.7265625 3.08203125 -11.7265625 3.08203125 -9.1875 1.3125 C-7.10020511 -0.77479489 -2.86269125 0.0356944 0 0 Z " fill="#F7F7F7" transform="translate(259.1875,281.6875)"/>
<path d="M0 0 C0.78568359 -0.01933594 1.57136719 -0.03867187 2.38085938 -0.05859375 C6.80923721 -0.02153619 10.65875425 0.44634397 14.0012207 3.68994141 C16.54502486 8.32812677 15.82266213 13.99424553 15.6875 19.125 C15.69394531 20.34832031 15.70039063 21.57164062 15.70703125 22.83203125 C15.58582249 32.91439609 15.58582249 32.91439609 11.0625 37.625 C7.69328823 39.30960589 3.9515138 38.93592974 0.25 39 C-0.55759766 39.03738281 -1.36519531 39.07476562 -2.19726562 39.11328125 C-6.13207119 39.17128821 -8.46767286 38.88016995 -11.97265625 36.9765625 C-15.19550392 31.47914042 -14.65752902 25.87157452 -14.5625 19.625 C-14.58183594 18.35398437 -14.60117187 17.08296875 -14.62109375 15.7734375 C-14.57331767 6.69598283 -14.57331767 6.69598283 -11.95703125 2.2890625 C-7.85244232 0.02702513 -4.61856606 -0.11310774 0 0 Z " fill="#FAFAFA" transform="translate(463.9375,281.375)"/>
<path d="M0 0 C2.78503333 1.69091309 3.21287623 3.50558105 4.5 6.5625 C5.72023305 10.20403585 5.72023305 10.20403585 9 12 C12.95476716 12.56080492 16.70693024 12.57847858 20.375 10.9375 C22.63993265 8.23700338 23.69797917 5.25505207 25 2 C27 0 27 0 30.4375 -0.3125 C34 0 34 0 35.9375 1 C37.71661001 4.34891296 37.76466601 7.38350583 37 11 C34.07956114 17.22405588 29.94726244 21.62988462 24 25 C23.236875 25.433125 22.47375 25.86625 21.6875 26.3125 C13.68712021 28.35910878 6.10461654 27.19650925 -1 23 C-3.38053673 20.88508105 -5.19863727 18.61584027 -7 16 C-7.61875 15.195625 -8.2375 14.39125 -8.875 13.5625 C-10.5350641 9.78124288 -10.39900626 7.12306469 -10 3 C-7.83160257 -1.08168929 -4.19435544 -0.44939523 0 0 Z " fill="#080808" transform="translate(71,300)"/>
</svg>
