<?xml version="1.0" encoding="utf-8" ?><svg xmlns="http://www.w3.org/2000/svg" xmlns:xlink="http://www.w3.org/1999/xlink" width="2000" height="2000" viewBox="0 0 2000 2000"><path fill="#251917" d="M541.81 1085.4C560.915 1050.83 586.71 1034.47 626.63 1033.92C663.832 1032.95 692.524 1052.97 698.752 1090.73C703.091 1117.04 701.572 1145.18 701.513 1171.99L701.14 1293.56C679.406 1293.49 657.671 1293.63 635.94 1293.98L636.002 1174.41C635.954 1159.41 635.994 1144.43 635.731 1129.38C635.507 1116.6 634.175 1099.7 621.962 1092.38C617.496 1089.71 609.915 1088.02 604.725 1088.28C567.985 1090.18 548.467 1132.34 546.78 1164.53C546.182 1176.77 546.249 1189.49 546.126 1201.76C545.909 1232.44 545.925 1263.11 546.172 1293.79L530.518 1293.84C514.502 1293.79 498.487 1293.89 482.473 1294.15L482.505 1182.05C482.501 1159.66 483.152 1137.11 480.723 1114.92C479.018 1099.33 468.996 1088.48 452.881 1088.35C421.41 1088.09 400.332 1120.44 395.221 1148.2C391.656 1167.57 392.588 1189.93 392.559 1209.61L392.554 1293.3C371.878 1294.48 348.861 1293.37 327.373 1294.33C326.263 1227.35 329.656 1155.92 327.122 1089.46C318.37 1086.72 293.699 1085.05 283.151 1084.11C282.781 1070.66 282.701 1057.2 282.911 1043.74C314.323 1039.77 358.117 1038.92 389.439 1039.21C388.753 1054.71 387.798 1070.2 386.576 1085.67C402.452 1055.29 426.556 1039.14 460.143 1034.52C502.268 1029.52 527.883 1046.37 541.81 1085.4Z"/><path fill="#E11F40" d="M1751.55 900.822C1781.74 899.59 1942.28 903.04 1888.33 970.255C1861.3 1003.93 1789.63 1027.53 1747.57 1040.14C1691.53 1056.95 1628.43 1064.25 1569.39 1068.29C1540.64 1068.49 1424.14 1070.8 1418.16 1024.03C1414.53 995.692 1472.87 965.17 1496.99 954.766C1576.51 920.471 1664.91 904.892 1751.55 900.822Z"/><path fill="#251917" d="M894.475 1034.53C965.469 1031 1011.94 1064.76 1020.74 1136.41C1025.77 1177.41 1019.73 1218.21 993.657 1251.66C970.377 1281.52 941.078 1294.04 904.465 1298.63C833.179 1301.95 783.668 1274.01 774.79 1198.82C769.973 1158.02 775.15 1114.84 801.544 1081.55C826.316 1050.32 855.708 1038.62 894.475 1034.53ZM900.625 1243.84C915.647 1242.2 928.387 1237.85 938.336 1224.98C961.95 1194.44 963.24 1124.84 931.745 1099.1C922.623 1091.65 906.882 1088.5 895.026 1089.17C845.242 1094.86 836.49 1144 841.314 1185.53C845.094 1218.08 863.689 1247.13 900.625 1243.84Z"/><path fill="#251917" d="M1185.93 1034.56C1207.48 1032.97 1229.15 1034.29 1250.35 1038.48C1249.25 1054.82 1249.15 1072.43 1248.84 1088.88C1227.67 1084.63 1212.25 1082.62 1190.52 1083.78C1164.11 1085.17 1152.51 1115.26 1173.56 1128.5C1208.85 1150.7 1262.78 1153.4 1267.31 1206.38C1272.63 1268.61 1221.45 1294.45 1167.24 1298.72C1144.92 1299.66 1122.57 1298.35 1100.52 1294.81C1100.86 1277.02 1101.37 1259.23 1102.07 1241.44C1121.5 1246.68 1141.88 1249.26 1162.17 1249.02C1179.25 1248.82 1201.13 1239.32 1198.74 1218.94C1196.13 1196.61 1160.8 1189.34 1143.02 1182.07C1116.92 1171.99 1099.71 1155.97 1096.13 1126.99C1088.98 1069.28 1133.98 1040.1 1185.93 1034.56Z"/><path fill="#E11F40" d="M1475.97 734.792C1502.95 732.369 1549.8 732.604 1572.31 748.142C1593.49 762.761 1568.5 783.942 1554.52 791.706C1505.34 819.019 1447.41 830.133 1391.85 834.71C1362.25 836.404 1320.67 838.062 1295.34 819.933C1285.3 812.746 1287.42 800.732 1295.6 793.068C1337.29 754.017 1421.5 738.42 1475.97 734.792Z"/><path fill="#251917" d="M160.407 1039.55C176.825 1039.06 193.252 1038.9 209.676 1039.07C209.03 1123.69 208.833 1208.32 209.087 1292.94C190.485 1292.86 166.469 1292.54 148.197 1293.86C145.822 1293.82 146.898 1294.17 144.964 1292.83C144.047 1288.03 144.693 1244.56 144.693 1236.84L144.561 1089.32C135.129 1086.56 110.95 1084.86 99.9603 1083.79C99.7998 1070.37 99.9846 1056.62 100.01 1043.18C119.32 1041.19 140.959 1040.37 160.407 1039.55Z"/><path fill="#E11F40" d="M1105.91 700.587C1118.62 699.768 1188.26 698.837 1166.58 726.063C1146.93 750.724 1083.57 760.248 1053.95 763.509C1035.56 763.841 1012.95 765.447 996.242 756.128C990.066 752.684 985.49 743.967 991.481 738.438C1019.15 712.901 1069.42 703.398 1105.91 700.587Z"/><path fill="#251917" d="M175.014 926.386C197.155 925.238 216.04 942.247 217.206 964.387C218.373 986.528 201.381 1005.43 179.242 1006.61C157.075 1007.8 138.148 990.782 136.98 968.615C135.812 946.448 152.845 927.535 175.014 926.386Z"/><path fill="#E11F40" d="M793.745 751.364C802.78 750.328 832.768 748.832 835.597 760.022C831.477 778.895 786.61 785.73 770.584 787.801C757.914 789.402 735.661 791.049 726.827 780.063C723.421 762.68 782.298 752.694 793.745 751.364Z"/></svg>