<?xml version="1.0" encoding="utf-8" ?><svg xmlns="http://www.w3.org/2000/svg" xmlns:xlink="http://www.w3.org/1999/xlink" width="768" height="768" viewBox="0 0 768 768"><path d="M300.404 138.964C298.988 139.886 296.781 140.917 294.969 141.157C280.943 142.995 265.655 142.467 251.512 141.702C246.891 141.452 240.611 139.074 240.15 133.749C239.009 120.569 239.984 105.784 242.099 92.734C243.083 86.6622 247.54 79.2495 250.728 74.1032C257.363 63.1536 270.178 64.9932 281.328 64.9386L312.058 64.8696L418.615 64.8369L620.222 65.2254C647.807 65.0363 675.394 65.2054 702.974 65.7326C710.688 65.8566 718.402 66.022 726.114 66.2288C730.953 66.3593 741.744 66.3246 745.701 68.1649C753.251 71.6769 761.144 79.5777 768 84.5965L768 681.438C765.263 683.395 762.656 685.529 760.197 687.825C746.616 700.468 749.297 700.97 729.892 701.102C699.34 701.309 668.782 701.242 638.229 701.258L467.053 701.311L348.128 701.236C328.753 701.378 309.377 701.228 290.006 700.785C279.209 700.593 262.381 702.442 253.193 695.95C250.505 694.051 246.953 688.861 245.571 685.78C244.316 682.925 243.387 679.937 242.802 676.874C241.669 670.826 236.518 629.892 244.875 625.749C248.615 623.895 265.432 624.318 270.727 624.345C278.213 624.404 285.7 624.39 293.186 624.302C305.694 624.148 319.135 623.514 331.367 622.997C353.417 622.067 373.572 619.579 391.151 604.91C396.314 601.033 400.714 597.331 404.875 592.328C407.584 589.493 413.547 580.216 417.255 578.901C431.294 573.926 449.522 578.603 463.336 572.432C465.344 559.423 463.784 536.557 463.57 522.862C463.299 505.498 464.198 485.977 462.562 468.982C455.469 466.932 438.073 468.225 435.04 464.637C430.278 459.004 433.029 432.195 432.455 424.142C432.347 421.401 433.603 408.088 436.4 406.815C446.813 402.077 452.377 410.63 462.988 400.483C463.533 394.868 463.433 387.45 463.456 381.73L463.507 353.432L463.514 325.586C463.51 317.013 463.67 309.396 462.572 300.871C452.718 296.108 444.089 296.778 433.657 294.126C431.345 284.442 431.376 250.332 433.279 240.338C440.551 236.501 454.355 235.593 462.582 232.963C463.736 225.222 463.529 218.356 463.543 210.566L463.586 186.621L463.594 153.141C463.579 146.099 464.2 133.427 462.202 127.099C453.574 124.127 430.17 125.139 420.606 125.196L381.241 125.354L339.4 125.527C331.935 125.556 324.336 125.488 316.883 125.654C305.332 125.912 304.247 129.334 300.404 138.964ZM543.715 295.731C542.154 305.401 542.286 315.701 542.286 325.521L542.289 354.777L542.232 382.815C542.275 391.291 541.523 398.087 545.149 405.899C550.719 406.838 558.063 406.584 563.823 406.584L590.329 406.573L682.219 406.442C691.129 406.357 696.281 407.442 703.905 401.844C704.467 397.161 704.282 390.575 704.283 385.735L704.28 360.331L704.259 327.08C704.252 319.843 704.443 312.536 703.923 305.314C703.75 302.914 703.489 298.445 701.981 296.516C700.152 294.175 657.364 293.706 651.203 293.63C631.381 293.478 611.558 293.462 591.735 293.581L574.299 293.71C572.5 293.722 567.368 293.601 565.779 293.798C559.282 294.196 549.493 293.8 543.715 295.731ZM702.842 235.152C703.516 232.031 704.139 228.161 704.169 224.98C704.362 203.955 704.4 182.768 704.297 161.753C704.261 154.249 704.969 134.669 702.523 128.691C699.803 126.282 689.96 125.556 686.327 125.451C648.682 124.362 611.012 124.745 573.362 124.685C566.999 124.788 548.006 124.376 544.356 129.103C541.634 132.629 542.326 155.374 542.347 160.695L542.309 188.958L542.252 215.045C542.243 220.194 541.583 226.911 542.83 231.864C543.161 233.179 543.941 234.449 545.131 235.142C549.646 237.773 656.833 236.245 672.656 236.227C681.167 236.205 694.576 236.443 702.842 235.152ZM543.958 466.588C542.304 476.546 542.589 484.954 542.567 494.972L542.516 525.431L542.431 548.897C542.338 555.862 541.379 567.829 544.277 573.991C546.403 576.111 561.836 576.228 565.391 576.224L682.624 575.24C689.074 575.199 698.676 575.576 703.87 571.838C704.875 559.023 704.303 539.564 704.295 526.419L704.276 500.306C704.264 491.893 704.641 475.708 702.111 467.891C694.829 465.712 684.446 465.889 676.575 465.683C661.959 465.433 647.341 465.333 632.724 465.383L587.487 465.394C579.433 465.415 570.419 465.263 562.467 465.57C555.726 465.632 550.651 465.626 543.958 466.588Z"/><path d="M0 221.715C4.35391 219.182 5.35361 218.298 8.87027 215.068C14.6314 209.775 24.3847 196.489 32.0514 194.811C42.1854 192.593 58.9152 192.878 69.5306 192.821L116.251 192.648C161.361 192.305 206.473 192.333 251.583 192.733C280.37 192.86 309.154 192.841 337.944 193.813C342.712 193.974 346.6 194.526 351.247 195.541C361.326 197.744 369.857 209.007 374.949 217.336C378.947 223.877 381.087 232.785 381.576 240.515C382.599 256.688 382.454 273.456 382.472 289.715L382.489 366.656L382.234 476.711C382.07 496.826 382.669 522.046 379.046 542.068C377.491 550.66 365.428 564.12 357.954 568.27C353.098 571.047 346.211 572.235 340.73 572.462C315.869 573.489 290.501 572.998 265.57 572.984L132.375 572.662L68.1853 572.554C58.2254 572.489 48.3655 572.636 38.603 572.075C21.9628 571.119 16.7146 562.042 8.88065 548.936C7.42769 546.505 2.43892 542.594 0 540.758L0 221.715ZM191.956 336.089C177.845 315.759 165.156 292.943 151.634 272.331C140.192 269.52 104.447 267.311 95.1352 273.419L95.3277 274.018C97.3978 280.361 106.631 293.166 110.808 299.758C120.252 314.917 129.476 330.212 138.475 345.639C144.052 355.085 149.919 364.566 154.907 374.34C156.156 376.787 157.277 379.767 157.681 382.48C157.868 385.766 154.911 391.899 153.472 394.738C147.363 406.784 140.481 418.386 133.548 429.955C127.525 440.129 121.374 450.225 115.094 460.241C109.669 468.788 103.924 477.126 98.5727 485.71C95.9497 489.917 96.9632 493.335 102.076 494.3C110.583 495.907 120.014 495.552 128.719 495.469C135.523 495.407 148.261 495.587 152.647 489.868C162.706 476.756 171.75 461.287 180.274 447.091C183.441 441.817 185.757 435.847 189.458 431.189C189.587 431.288 189.718 431.385 189.846 431.485C195.367 435.781 198.997 443.1 202.621 448.987C208.786 459.004 225.092 489.269 235.048 493.562C241.7 496.43 251.799 495.741 258.994 495.719C263.077 495.706 267.164 495.551 271.244 495.572C274.102 495.587 277.183 495.878 280.012 495.529C281.981 495.286 284.138 494.627 285.365 492.967C285.935 492.195 286.339 491.285 286.743 490.419C282.81 479.157 276.793 474.089 270.507 464.661C266.913 459.271 263.68 453.621 260.17 448.17C252.084 435.611 225.622 396.673 224.656 384.117C224.37 380.385 227.005 375.403 228.579 372.133C233.51 361.887 239.748 352.104 245.604 342.363C254.39 327.713 263.348 313.166 272.476 298.727C275.891 293.379 287.111 279.776 286.435 274.422C282.557 268.945 260.959 268.526 254.18 269.042C247.535 269.379 234.328 269.006 230.234 273.884C225.268 279.8 220.979 287.934 216.862 294.587C208.346 308.349 200.57 322.39 191.956 336.089Z"/></svg>